<svg width="24" height="16" viewBox="0 0 24 16" fill="currentColor" xmlns="http://www.w3.org/2000/svg">
<path fill-rule="evenodd" clip-rule="evenodd" d="M14.1893 0.329247C14.6401 -0.109733 15.371 -0.109733 15.8217 0.329247L22.7473 7.07372C23.1981 7.5127 23.1981 8.22442 22.7473 8.6634L15.8217 15.4079C15.371 15.8469 14.6401 15.8469 14.1893 15.4079C13.7386 14.9689 13.7386 14.2572 14.1893 13.8182L19.1445 8.99264H1.1543C0.516809 8.99264 2.48596e-05 8.48937 2.59912e-05 7.86856C2.57136e-05 7.24775 0.51681 6.74448 1.1543 6.74448L19.1445 6.74448L14.1893 1.91893C13.7386 1.47995 13.7386 0.768227 14.1893 0.329247Z" fill="#0147FF"/>
</svg>
