<svg width="370" height="266" viewBox="0 0 370 266" fill="none" xmlns="http://www.w3.org/2000/svg">
<path d="M211.85 117.053L211.857 116.886L211.986 116.948L211.85 117.053ZM349.978 109.99L347.163 104.56C336.212 83.4209 321.443 64.4926 303.602 48.7297L300.345 45.8552L211.981 116.958C227.896 124.591 245.162 129.004 262.788 129.945C280.414 130.885 298.052 128.334 314.69 122.439L349.978 109.99ZM211.852 116.896L211.763 3.47551L207.483 2.74348C184.015 -1.25698 160.008 -0.880125 136.68 3.85864L130.685 5.0737L143.138 40.3536C148.989 57.0058 158.071 72.3407 169.863 85.4743C181.656 98.6078 195.927 109.284 211.857 116.886L211.852 116.896ZM259.114 369.082L264.534 366.262C285.678 355.318 304.611 340.55 320.373 322.706L323.248 319.449L252.083 231.212C244.48 247.114 240.087 264.36 239.158 281.963C238.228 299.565 240.779 317.178 246.664 333.793L259.114 369.082ZM365.626 230.867L366.357 226.586C370.36 203.115 369.978 179.108 365.232 155.777L364.026 149.787L328.738 162.236C312.11 168.077 296.797 177.142 283.676 188.909C270.555 200.678 259.883 214.919 252.273 230.815L365.626 230.867ZM252.083 231.212L252.273 230.815L251.776 230.808L252.083 231.212ZM103.343 54.4005L90.893 19.1121L85.4627 21.9279C64.3251 32.8767 45.3965 47.6474 29.634 65.4883L26.7604 68.7443L97.8341 157.171C105.477 141.246 109.899 123.97 110.842 106.333C111.785 88.6942 109.235 71.0453 103.334 54.3965L103.343 54.4005ZM-16.3504 161.609C-20.3505 185.077 -19.9727 209.082 -15.2345 232.413L-14.0191 238.407L21.2603 225.954C37.9246 220.099 53.2695 211.008 66.4105 199.204C79.5532 187.401 90.2311 173.115 97.8341 157.171L-15.6177 157.326L-16.3504 161.609ZM138.012 271.241L138.141 271.303L138.133 271.141L138.012 271.241ZM0.0152583 278.209L2.83551 283.63C13.7794 304.774 28.5465 323.706 46.3914 339.47L49.6471 342.344L138.012 271.241C122.093 263.613 104.826 259.203 87.2001 258.264C69.5738 257.325 51.9355 259.875 35.2983 265.769L0.0152583 278.209ZM138.141 271.303L138.228 384.724L142.511 385.456C165.98 389.459 189.988 389.077 213.319 384.331L219.309 383.125L206.859 347.836C201.006 331.185 191.923 315.852 180.13 302.718C168.338 289.585 154.069 278.909 138.141 271.303ZM138.123 271.136L138.284 271.03C172.097 248.085 211.244 234.222 251.962 230.777L251.851 230.626C228.902 196.813 215.039 157.665 211.597 116.945L211.451 117.046C177.641 139.999 138.492 153.862 97.7724 157.3L97.8686 157.456C120.822 191.263 134.686 230.409 138.128 271.126L138.123 271.136Z" fill="url(#paint0_linear_2001_136)"/>
<defs>
<linearGradient id="paint0_linear_2001_136" x1="-7.00529" y1="258.309" x2="418.103" y2="147.123" gradientUnits="userSpaceOnUse">
<stop stop-color="#0147FF"/>
<stop offset="1" stop-color="#0147FF" stop-opacity="0"/>
</linearGradient>
</defs>
</svg>
